PathFileType	4	(X/Y/Z)	./resultDataOpenSim/trcMotMarkerGrf/sub10/qtm-03-05.trc
DataRate	CameraRate	NumFrames	NumMarkers	Units	OrigDataRate	OrigDataStartFrame	OrigNumFrames
250.000000	250.000000	9	24	m	250.000000	189	502
Frame#	Time	L.Toe.Tip			R.Toe.Tip			L.Ankle.Lat			R.Ankle.Lat			L.Ankle.Med			R.Ankle.Med			L.Heel			R.Heel			L.Knee.Lat			R.Knee.Lat			L.Knee.Med			R.Knee.Med			L.Thigh.Upper			R.Thigh.Upper			L.ASIS			R.ASIS			V.Sacral			L.Acromium			R.Acromium			C7			L.Elbow			R.Elbow			L.Wrist.Lat			R.Wrist.Lat
		X1	Y1	Z1	X2	Y2	Z2	X3	Y3	Z3	X4	Y4	Z4	X5	Y5	Z5	X6	Y6	Z6	X7	Y7	Z7	X8	Y8	Z8	X9	Y9	Z9	X10	Y10	Z10	X11	Y11	Z11	X12	Y12	Z12	X13	Y13	Z13	X14	Y14	Z14	X15	Y15	Z15	X16	Y16	Z16	X17	Y17	Z17	X18	Y18	Z18	X19	Y19	Z19	X20	Y20	Z20	X21	Y21	Z21	X22	Y22	Z22	X23	Y23	Z23	X24	Y24	Z24

189	0.752	0.074576893	-0.006765244	-0.033401797	-0.67667778	0.0397823	0.060130902	-0.061009147	0.026896714	-0.087790314	-0.7881307	0.12473126	0.08091129	-0.06411965	0.050481267	-0.0057489352	-0.7450515	0.12969727	0.0015703122	-0.12463302	0.00038194572	-0.048493468	-0.83546576	0.12865708	0.024798357	-0.10029231	0.41564923	-0.11080465	-0.49957204	0.39719532	0.12915782	-0.096027428	0.3938068	0.0092460273	-0.45330635	0.38500885	0.007754658	-0.22801944	0.78056268	-0.1661481	-0.40239364	0.78577991	0.18313344	-0.20832947	0.88885007	-0.079232574	-0.29561147	0.87091069	0.15449199	-0.44366093	0.88443714	-0.038559293	-0.32874212	1.3507834	-0.13573855	-0.36175253	1.3358114	0.18615744	-0.4288194	1.368145	0.01152175	-0.51470317	1.0843654	-0.22266204	-0.34424688	0.97167642	0.22351252	-0.51985656	0.85529181	-0.2996357	-0.09846841	0.91708051	0.20577191
190	0.756	0.074409629	-0.0070172776	-0.033151128	-0.67588495	0.039643261	0.060012754	-0.061371054	0.025117127	-0.087486392	-0.78348938	0.12933326	0.081145608	-0.064977737	0.048424569	-0.005380246	-0.73952383	0.13267001	0.0024627604	-0.12496859	-0.0024097522	-0.048954143	-0.82994031	0.13475175	0.02469361	-0.094985276	0.41423221	-0.11034511	-0.49135441	0.39644882	0.13020123	-0.091177171	0.39253942	0.0097878388	-0.44394114	0.38320189	0.0089193287	-0.22059646	0.7804237	-0.16650492	-0.39388989	0.78435896	0.18292533	-0.20091677	0.88884092	-0.079995123	-0.28753806	0.86999898	0.15389309	-0.43699505	0.88411156	-0.03823445	-0.32232448	1.3501295	-0.13615614	-0.35517531	1.3353429	0.18572191	-0.42224187	1.3672728	0.01110303	-0.50740386	1.0830186	-0.22271787	-0.33877453	0.97106556	0.22256988	-0.51195577	0.85387952	-0.29946975	-0.093467589	0.91605465	0.20608364
191	0.76	0.074392283	-0.007251022	-0.032999937	-0.67499626	0.039470035	0.059808863	-0.061405614	0.023436977	-0.087255743	-0.77825333	0.13401448	0.081299312	-0.065699854	0.046513322	-0.0051404397	-0.73330356	0.13550205	0.0033759402	-0.12520232	-0.0049257951	-0.049598703	-0.82366901	0.14094008	0.024406507	-0.089773601	0.41283477	-0.10988969	-0.48234599	0.39552642	0.13118729	-0.086452668	0.39123776	0.010355966	-0.43416926	0.38127225	0.010284327	-0.21309935	0.78040238	-0.16697019	-0.38528783	0.78289088	0.1827305	-0.19352598	0.88879813	-0.080712616	-0.27919659	0.86909185	0.1530546	-0.43032782	0.88378685	-0.037908761	-0.31588354	1.3494955	-0.13659071	-0.34854481	1.3348667	0.1852652	-0.41564961	1.3664286	0.010644292	-0.50005343	1.0816544	-0.22285003	-0.33351371	0.97046878	0.22176686	-0.50389445	0.85243072	-0.2992733	-0.088543373	0.91491221	0.20645556
192	0.764	0.074476643	-0.0074647285	-0.0329119	-0.67396578	0.039272206	0.05954708	-0.061265924	0.021750822	-0.087086056	-0.77231661	0.1387561	0.081374389	-0.066336655	0.044778401	-0.0049716179	-0.72637984	0.13816824	0.0043052186	-0.12539167	-0.0072115795	-0.050235298	-0.81660596	0.14718838	0.023924142	-0.084673631	0.41145237	-0.10942185	-0.47321537	0.39447116	0.13202798	-0.081887386	0.38991316	0.010952759	-0.42396885	0.37920895	0.011853009	-0.2055769	0.78047212	-0.16759175	-0.3766071	0.78137749	0.18254329	-0.18619085	0.88871316	-0.081379635	-0.27053556	0.86819701	0.15194663	-0.4236553	0.88346195	-0.037582902	-0.30942492	1.348879	-0.13703917	-0.34186551	1.3343792	0.1847763	-0.40905431	1.3656074	0.010087924	-0.49265396	1.0802753	-0.22305553	-0.32848517	0.96987692	0.2211628	-0.49568073	0.85094606	-0.29904789	-0.083697884	0.9136541	0.20687692
193	0.768	0.074582932	-0.0076634695	-0.032794095	-0.67278938	0.03905231	0.059286597	-0.061106965	0.020073595	-0.086943117	-0.76566879	0.14351183	0.081370555	-0.067008929	0.043207987	-0.0047696617	-0.71884632	0.14069764	0.0052706926	-0.12557533	-0.009273141	-0.050783846	-0.80873874	0.15345467	0.023286693	-0.079704641	0.4100825	-0.10893183	-0.46388135	0.39335467	0.13284859	-0.077564783	0.38857723	0.011549369	-0.41332251	0.37699432	0.013627183	-0.1980304	0.78060131	-0.16835572	-0.36787475	0.77981872	0.1823652	-0.17892183	0.88859772	-0.081992464	-0.26171483	0.86734065	0.1506761	-0.41697647	0.88313542	-0.037258969	-0.30296053	1.3482774	-0.1374963	-0.3351637	1.3338782	0.18424927	-0.40245977	1.3648083	0.0094251281	-0.485198	1.0788849	-0.22328395	-0.32360547	0.96928935	0.22066324	-0.4873173	0.84943375	-0.29879844	-0.078934399	0.91228907	0.20733979
194	0.772	0.074671571	-0.0078508442	-0.0325875	-0.67150972	0.038802565	0.059089031	-0.060997034	0.018557413	-0.086763485	-0.75843719	0.14819116	0.081301375	-0.067762965	0.041794482	-0.0044192183	-0.71085305	0.14313869	0.006312005	-0.12575242	-0.011004354	-0.051201009	-0.80013826	0.15968659	0.022608441	-0.074874956	0.40874179	-0.10842032	-0.45372555	0.39223131	0.13392953	-0.073584787	0.38723036	0.012100607	-0.40221791	0.37460815	0.015607922	-0.19036069	0.78076683	-0.1691473	-0.35911694	0.7782154	0.1821996	-0.17172901	0.88847434	-0.082544959	-0.25296295	0.86653991	0.149383	-0.4103027	0.88280628	-0.036940793	-0.29649228	1.347689	-0.13795912	-0.32845705	1.3333655	0.18369173	-0.39586258	1.3640351	0.0087429603	-0.47768221	1.0774842	-0.2234747	-0.31879292	0.96871312	0.22018362	-0.47879509	0.84789869	-0.298527	-0.074251806	0.91082482	0.20783871
195	0.776	0.07475956	-0.0080219897	-0.032304415	-0.670192	0.03850532	0.058983853	-0.060893203	0.017394253	-0.086467956	-0.75076446	0.15269508	0.081224865	-0.068461274	0.040549121	-0.0038405326	-0.70250858	0.14548349	0.0074744131	-0.12589539	-0.012286266	-0.051383064	-0.7909369	0.16584513	0.022043605	-0.070186662	0.40747106	-0.10789271	-0.44238124	0.39114211	0.1355424	-0.069993058	0.38587489	0.012601605	-0.39065654	0.37203468	0.01778852	-0.18245375	0.78096032	-0.16983282	-0.35034652	0.7765679	0.18204067	-0.16463623	0.88835914	-0.083034681	-0.24444099	0.86576213	0.14818523	-0.40366742	0.8824766	-0.036630513	-0.29000595	1.3471116	-0.13843684	-0.32173942	1.3328441	0.18312868	-0.3892639	1.363293	0.0081542446	-0.47012186	1.0760714	-0.22359965	-0.3139911	0.96815156	0.21970097	-0.47009911	0.84633	-0.29823681	-0.069640225	0.90925633	0.20837158
196	0.78	0.074884886	-0.0081664686	-0.031997438	-0.6688655	0.038155207	0.058955663	-0.060694149	0.016683746	-0.085999876	-0.74269751	0.15697957	0.081229006	-0.068876957	0.039495743	-0.0030291714	-0.69384102	0.14765756	0.0087725937	-0.12597809	-0.013088669	-0.0512285	-0.78126498	0.17192079	0.021720399	-0.065634455	0.40632611	-0.10734747	-0.43033739	0.3900467	0.13763135	-0.06674913	0.38453791	0.013113719	-0.37865603	0.36926595	0.020136606	-0.1743323	0.78118443	-0.1703909	-0.34157302	0.77487611	0.18188016	-0.15767297	0.88825059	-0.083470593	-0.23626007	0.86493551	0.14720292	-0.39711416	0.88215566	-0.036318564	-0.28348381	1.346546	-0.13894013	-0.31499915	1.3323201	0.18258951	-0.38267476	1.3625854	0.007691871	-0.46254107	1.0746418	-0.22365972	-0.30916383	0.96760296	0.21922301	-0.46122886	0.84471726	-0.29793454	-0.065086515	0.90756697	0.20894059
197	0.784	0.075062624	-0.00827817	-0.03170979	-0.66744615	0.037808403	0.058965787	-0.060322377	0.01638401	-0.08537379	-0.73424379	0.16106665	0.081381433	-0.068900715	0.038660313	-0.0020748224	-0.68487501	0.14962726	0.010162824	-0.12598848	-0.013479502	-0.050783945	-0.77122661	0.17790599	0.021693608	-0.061184441	0.4053611	-0.10677889	-0.41856902	0.388795	0.13974218	-0.063774567	0.38328057	0.013686814	-0.3662407	0.36630191	0.022591535	-0.16617856	0.7814561	-0.17091801	-0.33281492	0.77314192	0.18171879	-0.15085571	0.88813731	-0.083872009	-0.22841791	0.86403122	0.14644468	-0.39062634	0.88185995	-0.03597094	-0.27692171	1.3459998	-0.13945261	-0.30823912	1.3318073	0.18209288	-0.37610897	1.3619159	0.0073118807	-0.45493893	1.0731907	-0.22368061	-0.3043063	0.967078	0.21875441	-0.45220388	0.84307154	-0.29761768	-0.060587137	0.90575074	0.2095476
